<svg xmlns="http://www.w3.org/2000/svg" viewBox="0 0 500 500">
  <path style="fill: rgb(0, 0, 255);" d="M 0 0 L 90 90 L 410 90 L 500 0" />
  <path style="fill: rgb(0, 145, 255);" d="M 0 0 L 90 90 L 90 410 L 0 500" />
  <path style="fill: rgb(0, 145, 255);" d="M 500 0 L 410 90 L 410 410 L 500 500" />
  <path style="fill: rgb(0, 0, 255);" d="M 0 500 L 90 410 L 410 410 L 500 500" />
  <path style="fill: rgb(0, 145, 255);" d="M 90 90 L 180 180 L 320 180 L 410 90" />
  <path style="fill: rgb(0, 0, 255);" d="M 90 90 L 180 180 L 180 320 L 90 410" />
  <path style="fill: rgb(0, 0, 255);" d="M 410 90 L 320 180 L 320 320 L 410 410" />
  <path style="fill: rgb(0, 145, 255);" d="M 90 410 L 180 320 L 320 320 L 410 410" />
  <path style="fill: rgb(0, 0, 255);" d="M 180 180 L 250 250 L 250 250 L 320 180" />
  <path style="fill: rgb(0, 145, 255);" d="M 180 180 L 250 250 L 250 250 L 180 320" />
  <path style="fill: rgb(0, 145, 255);" d="M 320 180 L 250 250 L 250 250 L 320 320" />
  <path style="fill: rgb(0, 0, 255);" d="M 180 320 L 250 250 L 250 250 L 320 320" />
</svg>