<svg xmlns="http://www.w3.org/2000/svg" viewBox="0 0 500 500">
  <rect x="0" y="0" width="500" height="500" style="stroke: rgb(0, 0, 0); fill: rgb(18, 63, 198);" />
  <path style="stroke: rgb(13, 231, 213); stroke-width: 9px;" fill="transparent" d="
    M 40 60 Q 100 120 160 60 Q 220 120 280 60 Q 340 120 400 60
    M 90 150 Q 150 210 210 150 Q 270 210 330 150 Q 390 210 450 150
    M 40 240 Q 100 300 160 240 Q 220 300 280 240 Q 340 300 400 240
    M 90 330 Q 150 390 210 330 Q 270 390 330 330 Q 390 390 450 330
    M 40 420 Q 100 480 160 420 Q 220 480 280 420 Q 340 480 400 420
  " />
</svg>