<svg xmlns="http://www.w3.org/2000/svg" viewBox="0 0 500 500">
  <rect x="0" y="0" width="500" height="500" style="fill: rgb(76, 76, 76);" />
  <path style="fill: rgb(94, 94, 94);" d="M 0 0 L 90 90 L 410 90 L 500 0 M 380 120 L 250 250 L 380 380" />
  <path style="fill: rgb(115, 115, 115);" d="M 0 0 L 90 90 L 90 410 L 0 500 M 380 380 L 250 250 L 120 380" />
  <path style="fill: rgb(45, 45, 45);" d="M 500 0 L 410 90 L 410 410 L 500 500 M 120 120 L 250 250 L 120 380" />
  <path style="fill: rgb(58, 58, 58);" d="M 0 500 L 90 410 L 410 410 L 500 500 M 120 120 L 250 250 L 380 120" />
</svg>